Coordinates
version=1
nRows=8
nColumns=42
inDegrees=yes

Units are S.I. units (second, meters, Newtons, ...)
If the header above contains a line with 'inDegrees', this indicates whether rotational values are in degrees (yes) or radians (no).

endheader
time	pelvis_tilt	pelvis_list	pelvis_rotation	pelvis_tx	pelvis_ty	pelvis_tz	hip_flexion_r	hip_adduction_r	hip_rotation_r	knee_angle_r	knee_angle_r_beta	ankle_angle_r	subtalar_angle_r	mtp_angle_r	hip_flexion_l	hip_adduction_l	hip_rotation_l	knee_angle_l	knee_angle_l_beta	ankle_angle_l	subtalar_angle_l	mtp_angle_l	lumbar_extension	lumbar_bending	lumbar_rotation	sh_tx_r	sh_ty_r	sh_tz_r	sh_plane_elev_r	sh_elev_r	sh_axial_rot_r	elbow_flex_r	pro_sup_r	sh_tx_l	sh_ty_l	sh_tz_l	sh_plane_elev_l	sh_elev_l	sh_axial_rot_l	elbow_flex_l	pro_sup_l
      4.32203390	     -1.77463709	      0.59783861	      0.54576337	      0.24047025	      0.95148108	     -0.09494057	     -0.70592602	      0.49509546	     -6.85598416	      4.67224242	      0.08154601	     -2.94284131	    -12.69800799	     -7.49999987	     -1.24675647	      0.48604649	     -1.02865534	      1.27554813	      0.02226251	      5.87259674	      6.22757641	     -7.49999987	      2.10728338	     -1.69360636	      0.03483784	     -0.00039673	      0.01239431	     -0.00314993	     91.16399081	    171.86445210	    -10.84164852	     26.83463240	     66.91373527	     -0.00932906	      0.02030777	     -0.00312792	     88.14551256	    172.46993974	    -17.07349092	     31.59711352	     72.51566423
      4.33898310	     -2.02775648	      0.56714726	      0.61625979	      0.23942427	      0.95000542	     -0.09508361	     -0.18955186	      0.48003458	     -7.08376109	      5.13011017	      0.08953731	     -2.51132492	    -12.18698230	     -7.49999987	     -0.64160290	      0.44496600	     -1.24998163	      1.92045769	      0.03351831	      6.30554811	      6.47631546	     -7.49999987	      2.79229280	     -1.60540138	      0.18985444	      0.00041684	      0.01384112	     -0.00419023	     89.61074816	    171.30316979	    -11.94120414	     27.22841358	     66.30723843	     -0.00631839	      0.02129968	     -0.00416600	     86.67310466	    171.97914854	    -18.29109517	     32.04745594	     71.65041201
      4.35593220	     -1.68613178	      0.53760686	      0.63551425	      0.23930819	      0.95035315	     -0.09520982	     -0.73286034	      0.55121359	     -6.74213871	      4.79182230	      0.08363308	     -2.89564270	    -12.69921945	     -7.49999987	     -1.29966601	      0.42574960	     -1.18403385	      1.28747672	      0.02247071	      6.01182170	      6.50436991	     -7.49999987	      2.08631789	     -1.56915899	      0.11052301	     -0.00038654	      0.01444918	     -0.00340013	     89.88191738	    171.67066918	    -12.62735404	     27.25996312	     66.20413090	     -0.00859147	      0.02232821	     -0.00336575	     86.94717011	    172.23033741	    -18.62468327	     32.28650793	     71.56310645
      4.37288140	     -1.70064678	      0.54388306	      0.66964076	      0.23923621	      0.94995901	     -0.09600008	     -0.66957432	      0.52158572	     -6.66054270	      4.90705318	      0.08564423	     -2.87089934	    -12.91631201	     -7.49999987	     -1.24630881	      0.46719409	     -1.10189748	      1.29226104	      0.02255421	      6.08502892	      6.41783604	     -7.49999987	      1.91807789	     -1.58418967	     -0.07506299	     -0.00010654	      0.01438589	     -0.00326151	     92.08539795	    171.81945270	    -10.54909290	     26.71065273	     67.06891501	     -0.00940400	      0.02236841	     -0.00321220	     89.03364210	    172.40407958	    -16.55435058	     31.33499375	     73.04741512
      4.38983050	     -1.92815449	      0.51932194	      0.69227659	      0.23905936	      0.94940244	     -0.09646054	     -0.20648435	      0.47615142	     -6.89662508	      5.35431563	      0.09345044	     -2.26838476	    -12.28535138	     -7.49999987	     -0.71602095	      0.48154059	     -1.26078775	      1.81851809	      0.03173913	      6.54743659	      6.63510061	     -7.49999987	      2.63859767	     -1.44706576	      0.17998259	      0.00029751	      0.01538331	     -0.00416471	     89.17577374	    171.23016544	    -12.86126623	     27.47995699	     65.99477365	     -0.00617327	      0.02287566	     -0.00413045	     86.55512252	    171.91434047	    -19.08845293	     32.22602081	     71.38598314
      4.40677970	     -1.67638126	      0.52664522	      0.64570260	      0.23899180	      0.94953560	     -0.09590916	     -0.61140200	      0.48703573	     -6.54770067	      5.04529110	      0.08805694	     -2.53208854	    -12.73498949	     -7.49999987	     -1.23262874	      0.53658690	     -1.21519308	      1.29529247	      0.02260712	      6.40807559	      6.73807001	     -7.49999987	      2.17572915	     -1.40879877	      0.00773712	      0.00009428	      0.01514931	     -0.00344024	     89.02312924	    171.54937779	    -13.49455064	     27.52037691	     65.84160199	     -0.00804346	      0.02309675	     -0.00339499	     86.42116474	    172.18838954	    -19.33852190	     32.19168724	     71.25269423
      4.42372880	     -1.76560580	      0.55130869	      0.62241024	      0.23892832	      0.95091475	     -0.09541517	     -0.50409102	      0.48708877	     -6.21544323	      5.04469050	      0.08804646	     -2.80412784	    -13.28857436	     -7.49999987	     -1.12167059	      0.57195846	     -1.02231855	      1.27412021	      0.02223759	      6.26012933	      6.44160932	     -7.49999987	      2.10742921	     -1.45212270	     -0.25154437	      0.00044785	      0.01436197	     -0.00328566	     91.04447911	    171.69968855	    -11.55848298	     27.12866804	     66.44405616	     -0.00943670	      0.02212797	     -0.00321938	     88.27355689	    172.44916797	    -16.51418797	     31.13385785	     72.30483041
      4.44067800	     -1.77102277	      0.55418494	      0.63174885	      0.23890051	      0.95071486	     -0.09561694	     -0.51416363	      0.47930332	     -6.39335898	      5.01486624	      0.08752593	     -2.53094970	    -12.78663907	     -7.49999987	     -1.11677893	      0.57647819	     -1.12349612	      1.27413065	      0.02223778	      6.33621126	      6.67541140	     -7.49999987	      2.22397063	     -1.45020949	      0.06210923	     -0.00010971	      0.01416143	     -0.00336254	     90.11017212	    171.60786918	    -12.17113954	     27.32166681	     66.19066416	     -0.00852736	      0.02189395	     -0.00331670	     87.28914148	    172.30602006	    -17.53453844	     31.68833051	     71.89091161
